<?xml version="1.0" encoding="utf-8"?>
<!-- Generator: Adobe Illustrator 23.0.0, SVG Export Plug-In . SVG Version: 6.00 Build 0)  -->
<svg version="1.1" id="Capa_1" xmlns="http://www.w3.org/2000/svg" xmlns:xlink="http://www.w3.org/1999/xlink" x="0px" y="0px"
	 viewBox="0 0 1193.8 275.4" style="enable-background:new 0 0 1193.8 275.4;" xml:space="preserve">
<style type="text/css">
	.st0{fill:#4AD295;}
	.st1{fill:#4D5D7A;}
	.st2{fill:#5A5B5D;}
	.st3{fill:#46A6D5;}
	.st4{fill:#FFFFFF;}
	.st5{fill:#894C9E;}
</style>
<path class="st0" d="M395.8,198.2c0.1,3.8,3.5,7,7.3,6.9c1.7-0.1,3.3-0.7,4.5-1.8c0.5-0.5,1.4-0.8,2.2-0.8h1.4v19.2
	c0,1.3-1,2.3-2.3,2.3h-19.2v-1.4c0-0.8,0.4-1.6,0.9-2.3c1.1-1.3,1.8-2.9,1.8-4.7c0-0.3,0-0.5,0-0.7c0-0.1,0-0.1,0-0.2
	c0-0.2,0-0.4-0.1-0.5c0-0.1,0-0.2-0.1-0.3c0-0.2-0.1-0.3-0.1-0.5c0-0.1-0.1-0.2-0.1-0.3c-0.1-0.2-0.1-0.3-0.2-0.5
	c0-0.1-0.1-0.2-0.1-0.3c-0.1-0.1-0.1-0.3-0.2-0.4c0-0.1-0.1-0.2-0.1-0.3c-0.1-0.1-0.2-0.3-0.3-0.4c-0.1-0.1-0.1-0.2-0.2-0.2
	c-0.1-0.1-0.2-0.3-0.3-0.4c-0.1-0.1-0.1-0.1-0.2-0.2c-0.1-0.1-0.2-0.2-0.3-0.3c-0.1-0.1-0.2-0.1-0.2-0.2c-0.1-0.1-0.2-0.2-0.4-0.3
	c-0.1-0.1-0.2-0.1-0.2-0.2c-0.1-0.1-0.3-0.2-0.4-0.3c-0.1-0.1-0.2-0.1-0.3-0.2c-0.1-0.1-0.3-0.2-0.4-0.2c-0.1,0-0.2-0.1-0.3-0.1
	c-0.1-0.1-0.3-0.1-0.4-0.2c-0.1,0-0.2-0.1-0.3-0.1s-0.3-0.1-0.4-0.2c-0.1,0-0.2,0-0.3-0.1c-0.1,0-0.3-0.1-0.4-0.1
	c-0.1,0-0.2,0-0.3,0c-0.1,0-0.3,0-0.5,0c-0.1,0-0.2,0-0.4,0c-0.1,0-0.3,0-0.4,0h-0.1h-0.4c-0.1,0-0.3,0-0.4,0
	c-0.2,0-0.3,0.1-0.5,0.1c-0.1,0-0.2,0-0.3,0c-0.2,0-0.4,0.1-0.5,0.2h-0.1c-0.2,0.1-0.5,0.2-0.6,0.3l0,0c-1.4,0.6-2.7,1.8-3.4,3.2
	c0,0,0,0,0,0.1c-0.1,0.2-0.2,0.4-0.3,0.5c0,0,0,0.1-0.1,0.2c-0.1,0.2-0.1,0.3-0.2,0.5c0,0.1-0.1,0.2-0.1,0.3s-0.1,0.3-0.1,0.4
	s-0.1,0.2-0.1,0.3s0,0.3,0,0.4s0,0.3,0,0.4s0,0.3,0,0.4s0,0.3,0,0.4v0.1c0,0.1,0,0.2,0,0.3v0.4c0,0.1,0,0.2,0,0.3s0,0.3,0.1,0.4
	c0,0.1,0,0.2,0.1,0.3c0,0.1,0.1,0.3,0.1,0.4c0,0.1,0.1,0.2,0.1,0.3s0.1,0.2,0.1,0.3s0.1,0.2,0.1,0.3s0.1,0.2,0.1,0.3
	s0.1,0.2,0.2,0.3c0.1,0.1,0.1,0.2,0.2,0.3c0.1,0.1,0.1,0.2,0.2,0.3c0.1,0.1,0.1,0.2,0.2,0.3c0.1,0.1,0.1,0.2,0.2,0.3
	c0.1,0.1,0.1,0.1,0.2,0.2c0.5,0.6,0.9,1.4,0.9,2.3v1.4h-19.3c-1.3,0-2.3-1-2.3-2.3v-19.4h-1.3c-0.8,0-1.5,0.3-2.2,0.8
	c-1.2,1.1-2.8,1.8-4.5,1.8c-3.8,0.2-7.3-2.9-7.3-6.9c-0.1-4,3.1-7.3,7.1-7.3c1.8,0,3.4,0.6,4.7,1.8c0.6,0.5,1.4,0.9,2.3,0.9h1.4
	v-19.3c0-1.3,1-2.3,2.3-2.3h19.2v-1.4c0-0.8-0.3-1.5-0.8-2.2c-1.1-1.2-1.8-2.8-1.8-4.5c-0.2-3.8,2.9-7.3,6.8-7.3
	c4-0.1,7.3,3.1,7.3,7.1c0,1.8-0.6,3.4-1.8,4.7c-0.5,0.6-0.9,1.4-0.9,2.3v1.4H409c1.3,0,2.3,1,2.3,2.3v19.2h-1.4
	c-0.8,0-1.6-0.4-2.3-0.9c-1.3-1.1-2.9-1.8-4.7-1.8C398.9,190.9,395.7,194.1,395.8,198.2z"/>
<g>
	<path class="st0" d="M430.6,195.8c0-12.3,7.1-19.5,18.3-19.5c9.5,0,16.8,6.1,17,15h-9.2c-0.5-4.5-3.6-7.4-7.8-7.4
		c-5.2,0-8.5,4.5-8.5,11.8c0,7.4,3.3,11.8,8.6,11.8c4.2,0,7.2-2.8,7.9-7.2h9.2c-0.4,8.9-7.4,14.9-17.1,14.9
		C437.6,215.3,430.6,208.1,430.6,195.8z"/>
	<path class="st0" d="M470,177h9v14.6h0.2c1.5-3.8,4.6-5.9,8.9-5.9c6.3,0,9.9,4,9.9,10.7v18.2h-9.2v-16.2c0-3.2-1.6-5.2-4.6-5.2
		c-3.1,0-4.9,2.2-4.9,5.4v16H470V177L470,177z"/>
	<path class="st0" d="M516.2,215.3c-9.3,0-14.8-5.5-14.8-14.9c0-9.2,5.6-14.9,14.5-14.9c3.9,0,5.3,1.2,7.8,1.2c2,0,2.8-0.6,2.8-2.1
		v-3.8h7v6.1c0,3.5-1.8,5.3-5.2,5.3h-0.9v0.2c1.9,2,3,5.1,3,8.8C530.6,209.7,524.8,215.3,516.2,215.3z M521.2,200.5
		c0-5.1-2-8.1-5.2-8.1s-5.2,3.1-5.2,8.1c0,5.1,1.9,8.1,5.2,8.1S521.2,205.6,521.2,200.5z M511.6,222.1c0-2.4,2-4.5,4.5-4.5
		c2.6,0,4.6,2,4.6,4.5c0,2.5-2,4.5-4.6,4.5C513.6,226.6,511.6,224.5,511.6,222.1z"/>
	<path class="st0" d="M564.2,177c8.1,0,13.6,5.3,13.6,13.4c0,8.1-5.8,13.3-14.2,13.3h-6.1v11h-9.6V177H564.2z M557.4,196.4h4.2
		c4.1,0,6.5-2.1,6.5-6.1c0-3.9-2.4-6-6.4-6h-4.2L557.4,196.4L557.4,196.4z"/>
	<path class="st0" d="M581.5,177h9.3v37.7h-9.3V177z"/>
	<path class="st0" d="M623.1,214.7h-9v-5.4H614c-1.3,3.7-4,5.9-8.3,5.9c-6.1,0-10.4-4-10.4-10.7v-18.3h9.3v16.3
		c0,3.4,1.8,5.2,4.6,5.2s4.7-2.1,4.7-5.3v-16.1h9.2V214.7L623.1,214.7z"/>
	<path class="st0" d="M627.5,216.5h8.9c0.4,1.7,2.4,2.8,5,2.8c3.6,0,5.4-1.9,5.4-4.7v-5.2h-0.2c-1.1,3-4.5,5.1-8.6,5.1
		c-6.8,0-11.3-5.2-11.3-14.1c0-9.1,4.3-14.5,11.4-14.5c4.1,0,7.3,2.2,8.6,5.4h0.2v-5h9.2v28.1c0,6.8-6,11-14.9,11
		C633.2,225.4,628,221.7,627.5,216.5z M646.9,200.4c0-4.5-2.1-7.4-5.3-7.4c-3.3,0-5.3,2.8-5.3,7.4c0,4.6,2,7.1,5.3,7.1
		C644.9,207.6,646.9,205,646.9,200.4z"/>
	<path class="st0" d="M660.6,186.2h9.2v28.4h-9.2V186.2z M660.7,178.5c0-2.5,2-4.5,4.5-4.5c2.6,0,4.6,2,4.6,4.5c0,2.4-2,4.5-4.6,4.5
		C662.7,183,660.7,181,660.7,178.5z"/>
	<path class="st0" d="M674.4,186.2h9v5.3h0.2c1.5-3.8,4.5-5.9,8.8-5.9c6.3,0,9.9,4,9.9,10.7v18.2H693v-16.3c0-3.2-1.5-5.2-4.6-5.2
		c-2.9,0-4.8,2.2-4.8,5.3v16.1h-9.3V186.2z"/>
	<path class="st0" d="M718.8,185.6c7.8,0,12.5,3.8,12.7,9.7H723c-0.2-2-1.7-3.4-4.2-3.4c-2.2,0-3.8,1-3.8,2.5c0,1.2,0.8,2,3.6,2.6
		l5,1c6.1,1.2,8.7,3.5,8.7,7.8c0,5.9-5.3,9.7-13.1,9.7c-8.5,0-13.2-3.8-13.6-9.5h9c0.4,2.1,2,3.3,4.7,3.3c2.5,0,4-1,4-2.4
		c0-1.3-0.9-1.9-3.5-2.5l-5-1c-5.6-1.1-8.5-4-8.5-8.4C706.1,189.1,711,185.6,718.8,185.6z"/>
</g>
<g>
	<path class="st1" d="M298.8,112.2V65.6h-16.2v-12h47.2v12h-16.2v46.6H298.8z"/>
	<path class="st1" d="M368.5,98.3c-1.4,9.1-9.5,15-21.1,15c-14.1,0-22.5-8.6-22.5-22.9s8.5-23.4,22-23.4c13.3,0,21.8,8.7,21.8,22.3
		v4.1h-29.8v0.9c0,5.3,3.5,8.9,8.7,8.9c3.9,0,6.9-1.8,7.9-4.8H368.5z M339.1,85.1h16.1c-0.2-4.7-3.5-7.9-8-7.9
		C342.8,77.2,339.5,80.5,339.1,85.1z"/>
	<path class="st1" d="M374.6,53.6H389v58.6h-14.4V53.6z"/>
	<path class="st1" d="M438.4,98.3c-1.4,9.1-9.5,15-21.1,15c-14.1,0-22.5-8.6-22.5-22.9s8.5-23.4,22-23.4c13.3,0,21.8,8.7,21.8,22.3
		v4.1h-29.8v0.9c0,5.3,3.5,8.9,8.7,8.9c3.9,0,6.9-1.8,7.9-4.8H438.4z M409,85.1H425c-0.2-4.7-3.5-7.9-8-7.9
		C412.6,77.2,409.3,80.5,409,85.1z"/>
	<path class="st1" d="M444,115.1h13.9c0.7,2.6,3.7,4.3,7.8,4.3c5.5,0,8.4-3,8.4-7.3V104h-0.3c-1.7,4.7-6.9,7.9-13.4,7.9
		c-10.6,0-17.6-8-17.6-21.9c0-14.1,6.7-22.6,17.8-22.6c6.4,0,11.3,3.5,13.3,8.5h0.3V68h14.3v43.7c0,10.6-9.3,17.1-23.1,17.1
		C452.8,128.9,444.8,123.1,444,115.1z M474.2,90.1c0-7.1-3.2-11.5-8.3-11.5c-5.2,0-8.3,4.4-8.3,11.5c0,7.1,3.1,11.1,8.3,11.1
		C471,101.2,474.2,97.2,474.2,90.1z"/>
	<path class="st1" d="M495.4,68h14v8.4h0.3c1.6-6,5.2-9,10.4-9c1.5,0,2.7,0.2,3.7,0.6v12.3c-1.2-0.5-2.9-0.8-4.6-0.8
		c-6.1,0-9.3,3.4-9.3,9.6v23.3h-14.4V68z"/>
	<path class="st1" d="M525.3,99.4c0-8.3,6.4-12.9,17.8-13.6l10.4-0.6v-2.5c0-3.5-2.5-5.5-6.3-5.5c-3.9,0-6.4,2-6.8,4.8h-13
		c0.4-9.1,8.1-15,20.5-15c11.8,0,19.7,6,19.7,14.9v30.3h-14v-6.3h-0.3c-2.4,4.5-7.8,6.9-13.1,6.9C532,112.9,525.3,107.4,525.3,99.4z
		 M553.5,96.3v-3l-8,0.5c-3.8,0.3-5.9,2-5.9,4.6c0,2.8,2.3,4.5,5.7,4.5C549.7,103,553.5,100.3,553.5,96.3z"/>
	<path class="st1" d="M574.5,68h14v8.5h0.3c1.7-5.7,6.6-9.4,12.6-9.4c6.6,0,11,3.4,12.3,9.4h0.3c1.7-5.7,7.1-9.4,13.6-9.4
		c8.6,0,14.5,6.1,14.5,15.1v30h-14.4V85.9c0-4.6-2.2-7-6.2-7c-3.9,0-6.3,2.8-6.3,7.1v26.2h-13.8V85.7c0-4.4-2.2-6.9-6.1-6.9
		c-3.9,0-6.4,2.9-6.4,7.2v26.1h-14.4V68z"/>
	<path class="st1" d="M666,112.2V53.6h11.9l24.8,34.1h0.3V53.6h14.1v58.6h-11.8l-25-34.4h-0.3v34.4H666z"/>
	<path class="st1" d="M723.7,90.1c0-14.5,8.9-23.1,22.6-23.1c13.8,0,22.6,8.6,22.6,23.1c0,14.8-8.7,23.2-22.6,23.2
		S723.7,104.8,723.7,90.1z M754.4,90.1c0-8-3.1-12.6-8-12.6c-4.9,0-8,4.7-8,12.6c0,8.1,3,12.6,8,12.6
		C751.2,102.7,754.4,98.2,754.4,90.1z"/>
	<path class="st1" d="M792.5,58.1V68h8v10.6h-8v18.6c0,3,1.6,4.6,5.1,4.6c1.1,0,2,0,2.8-0.2v10.2c-1.4,0.3-3.5,0.5-6.3,0.5
		c-11.5,0-16-3.5-16-12.2V78.6h-6V68h6v-9.9H792.5z"/>
	<path class="st1" d="M806.5,68h14.4v44.2h-14.4V68z M806.6,56c0-3.8,3.1-7,7.1-7c4,0,7.1,3.2,7.1,7c0,3.8-3.1,6.9-7.1,6.9
		C809.7,63,806.6,59.8,806.6,56z"/>
	<path class="st1" d="M831.5,78.6h-5.9V68.3h5.9v-2.6c0-8.7,4.2-12.7,15.8-12.7c2.6,0,5.4,0.3,7,0.6v8.9c-0.8-0.1-2-0.2-3.2-0.2
		c-3.9,0-5.6,1.5-5.6,4.1v1.9h8.6v10.3h-8.2v33.6h-14.4V78.6z"/>
	<path class="st1" d="M859.9,68h14.4v44.2h-14.4V68z M859.9,56c0-3.8,3.1-7,7.1-7c4,0,7.1,3.2,7.1,7c0,3.8-3.1,6.9-7.1,6.9
		C863.1,63,859.9,59.8,859.9,56z"/>
	<path class="st1" d="M910,85.5c-0.5-4.6-3.2-7.6-7.4-7.6c-5.1,0-8,4.4-8,12.2c0,7.9,3,12.3,8,12.3c4.2,0,6.9-2.7,7.5-7.3h13.2
		c-0.4,11.2-8.4,18.2-20.8,18.2c-13.8,0-22.5-8.7-22.5-23.2c0-14.3,8.6-23.1,22.4-23.1c12.5,0,20.5,7.4,20.9,18.5H910z"/>
	<path class="st1" d="M926.9,99.4c0-8.3,6.4-12.9,17.8-13.6l10.4-0.6v-2.5c0-3.5-2.5-5.5-6.3-5.5c-3.9,0-6.4,2-6.8,4.8h-13
		c0.4-9.1,8.1-15,20.5-15c11.8,0,19.7,6,19.7,14.9v30.3h-14v-6.3h-0.3c-2.4,4.5-7.8,6.9-13.1,6.9
		C933.5,112.9,926.9,107.4,926.9,99.4z M955,96.3v-3l-8,0.5c-3.8,0.3-5.9,2-5.9,4.6c0,2.8,2.3,4.5,5.7,4.5
		C951.2,103,955,100.3,955,96.3z"/>
	<path class="st1" d="M994,58.1V68h8v10.6h-8v18.6c0,3,1.6,4.6,5.1,4.6c1.1,0,2,0,2.8-0.2v10.2c-1.4,0.3-3.5,0.5-6.3,0.5
		c-11.5,0-16-3.5-16-12.2V78.6h-6V68h6v-9.9H994z"/>
	<path class="st1" d="M1008,68h14.4v44.2H1008V68z M1008.1,56c0-3.8,3.1-7,7.1-7c4,0,7.1,3.2,7.1,7c0,3.8-3.1,6.9-7.1,6.9
		C1011.2,63,1008.1,59.8,1008.1,56z"/>
	<path class="st1" d="M1028.1,90.1c0-14.5,8.9-23.1,22.6-23.1c13.8,0,22.6,8.6,22.6,23.1c0,14.8-8.7,23.2-22.6,23.2
		S1028.1,104.8,1028.1,90.1z M1058.7,90.1c0-8-3.1-12.6-8-12.6c-4.9,0-8,4.7-8,12.6c0,8.1,3,12.6,8,12.6
		C1055.6,102.7,1058.7,98.2,1058.7,90.1z"/>
	<path class="st1" d="M1078.9,68h14v8.3h0.3c2.3-5.9,6.9-9.2,13.7-9.2c9.9,0,15.3,6.2,15.3,16.7v28.4h-14.4V86.9c0-5-2.4-8-7.1-8
		c-4.6,0-7.4,3.5-7.4,8.3v25h-14.4V68z"/>
	<path class="st1" d="M1147.8,66.9c12.2,0,19.5,5.9,19.7,15h-13.2c-0.3-3.1-2.6-5.3-6.6-5.3c-3.5,0-5.8,1.5-5.8,3.9
		c0,1.9,1.3,3.1,5.5,4l7.8,1.5c9.4,1.8,13.5,5.5,13.5,12.1c0,9.2-8.3,15.1-20.4,15.1c-13.2,0-20.5-5.9-21.2-14.8h14
		c0.6,3.3,3.1,5.1,7.3,5.1c3.8,0,6.2-1.5,6.2-3.8c0-2-1.4-3-5.4-3.9l-7.8-1.5c-8.7-1.7-13.2-6.3-13.2-13
		C1128.2,72.5,1135.7,66.9,1147.8,66.9z"/>
</g>
<g>
	<path class="st2" d="M293.8,205.8c0-5.3,4-8.5,11.2-8.9l8.2-0.5v-2.3c0-3.3-2.3-5.3-6-5.3c-3.6,0-5.8,1.7-6.3,4.4H295
		c0.3-5.4,5-9.4,12.4-9.4c7.3,0,11.9,3.9,11.9,9.9v20.7h-5.9v-4.9h-0.1c-1.7,3.3-5.5,5.5-9.5,5.5
		C297.9,214.9,293.8,211.2,293.8,205.8z M313.2,203.1v-2.4l-7.4,0.5c-3.7,0.3-5.8,1.9-5.8,4.5c0,2.6,2.2,4.3,5.5,4.3
		C309.8,210,313.2,207,313.2,203.1z"/>
</g>
<g>
	<path class="st2" d="M781.8,199.6c0,9.5-5,15.5-12.5,15.5c-4.3,0-7.7-2.1-9.5-5.5h-0.1v14.9h-6.2v-40h6v5.2h0.1
		c1.8-3.5,5.2-5.7,9.6-5.7C776.8,184.1,781.8,190.1,781.8,199.6z M775.5,199.6c0-6.3-3.1-10.3-7.9-10.3c-4.7,0-7.9,4.1-7.9,10.3
		c0,6.3,3.1,10.3,7.9,10.3C772.4,210,775.5,206,775.5,199.6z"/>
	<path class="st2" d="M786.6,184.6h5.9v5.1h0.1c1-3.5,3.7-5.6,7.2-5.6c0.9,0,1.7,0.1,2.1,0.2v5.7c-0.5-0.2-1.6-0.3-2.8-0.3
		c-4,0-6.4,2.7-6.4,6.9v18h-6.2V184.6z"/>
	<path class="st2" d="M803.1,199.6c0-9.7,5.7-15.6,14.3-15.6c8.6,0,14.3,5.9,14.3,15.6c0,9.7-5.7,15.6-14.3,15.6
		C808.8,215.2,803.1,209.3,803.1,199.6z M825.4,199.6c0-6.7-3.1-10.5-8-10.5c-4.8,0-8,3.8-8,10.5c0,6.7,3.1,10.5,8,10.5
		C822.2,210.2,825.4,206.3,825.4,199.6z"/>
	<path class="st2" d="M835.1,199.6c0-9.5,5-15.5,12.6-15.5c4.3,0,7.7,2.2,9.4,5.5h0.1v-16.2h6.2v41.2h-6v-5.1h-0.1
		c-1.8,3.4-5.2,5.6-9.6,5.6C840.1,215.2,835.1,209.1,835.1,199.6z M841.4,199.6c0,6.3,3.1,10.3,7.9,10.3c4.7,0,7.9-4,7.9-10.3
		c0-6.2-3.2-10.3-7.9-10.3C844.4,189.3,841.4,193.3,841.4,199.6z"/>
	<path class="st2" d="M895.5,214.7h-5.9v-5.1h-0.1c-1.7,3.6-4.7,5.6-9.3,5.6c-6.5,0-10.5-4.3-10.5-11.1v-19.5h6.2v18.3
		c0,4.6,2.2,7,6.4,7c4.5,0,7.1-3.1,7.1-7.8v-17.5h6.2V214.7z"/>
	<path class="st2" d="M921.5,195c-0.6-3.2-3-5.7-7.1-5.7c-4.8,0-7.9,4-7.9,10.4c0,6.6,3.2,10.4,8,10.4c3.8,0,6.3-2.1,7-5.6h5.9
		c-0.7,6.4-5.8,10.7-13,10.7c-8.6,0-14.2-5.9-14.2-15.6c0-9.5,5.6-15.6,14.1-15.6c7.7,0,12.5,5,13,10.9H921.5z"/>
	<path class="st2" d="M939.8,177.5v7.1h5.7v4.9h-5.7v16.6c0,2.6,1.1,3.8,3.7,3.8c0.6,0,1.6-0.1,2-0.1v4.9c-0.7,0.2-2.1,0.3-3.4,0.3
		c-6.1,0-8.5-2.3-8.5-8.1v-17.3h-4.4v-4.9h4.4v-7.1H939.8z"/>
</g>
<path class="st3" d="M129.8,189.4l-3.1,44c4.5,0,6.4-1.9,8.7-4.2l21-20l43.4,31.8c8,4.4,13.6,2.1,15.7-7.3l28.5-133.6l0,0
	c2.5-11.8-4.3-16.4-12-13.5L64.5,150.6c-11.4,4.4-11.3,10.8-1.9,13.7l42.9,13.3l99.5-62.3c4.7-3.1,8.9-1.4,5.4,1.7L129.8,189.4z"/>
<rect x="27" y="46.5" class="st4" width="183.2" height="77.3"/>
<g>
	<path class="st5" d="M39.6,35.9c53.3,0,106.6,0,159.9,0c0.9,0.1,1.7,0.2,2.6,0.3c7.4,1.1,13.5,6.8,15,14.2c0.2,1.1,0.3,2.1,0.5,3.2
		c0,20.6,0,41.1,0,61.7c-0.1,0.3-0.2,0.6-0.2,1c-0.1,2.1-0.6,4-1.5,5.9c-3.4,7-9,10.8-16.8,10.8c-18.6,0.1-37.1,0-55.7,0
		c-0.4,0-0.7,0-1.3,0c2.6,6.4,5.1,12.6,7.7,19c-0.4-0.2-0.5-0.3-0.7-0.4c-10.9-6-21.7-12.1-32.6-18.1c-0.5-0.3-1.2-0.5-1.9-0.5
		c-24.9,0-49.8,0-74.7,0c-2.8,0-5.4-0.6-7.8-1.9c-6.7-3.6-10-9.2-10-16.7c-0.1-19.8,0-39.7,0-59.5c0-1.2,0.1-2.4,0.3-3.6
		c1.1-7.3,6.8-13.4,14.1-14.8C37.5,36.2,38.5,36,39.6,35.9z M90.4,93.3c-0.2-0.4-0.3-0.7-0.4-1c-3-8-5.1-16.2-6.7-24.5
		c-0.3-1.7-0.7-3.5-1.5-5.1c-1.7-3.2-5.4-3.5-7.8-2.1c-1.8,1-2.8,2.6-3.8,4.4C64.6,75.7,59,86.3,53.5,96.9c-0.1,0.2-0.2,0.4-0.4,0.6
		c-0.1-0.4-0.2-0.6-0.2-0.8c-1.7-8.2-3.5-16.4-5-24.6c-1.1-5.5-1.9-11-2.7-16.6c-0.6-3.8-2.8-5.8-6.6-5.6c-4.8,0.2-7.4,3.6-6.7,8
		c0.7,4.9,1.5,9.9,2.4,14.8c1.8,9.2,3.6,18.5,5.5,27.7c1.3,6,2.9,12,5.1,17.8c0.6,1.6,1.4,3.1,2.6,4.3c1.4,1.4,2.9,1.7,4.7,0.9
		c1.5-0.7,2.7-1.8,3.8-3c3-3.4,5.2-7.4,7.2-11.4c3.5-7,7-14,10.5-21c0.1-0.2,0.2-0.4,0.3-0.5c1,2.9,1.9,5.7,2.9,8.5
		c2.8,7.7,6.4,15,11.5,21.4c1.6,2,3.2,3.9,5.3,5.4c1.5,1,3.2,1.4,5,1c2.4-0.6,3.6-2.4,4.2-4.7c0.4-1.5,0.2-3.1,0.2-4.6
		c-0.1-4.5-0.1-8.9,0.4-13.4c0.4-3.5,0.6-7,1.1-10.4c0.8-5.1,1.6-10.2,2.6-15.3c1.3-6.5,2.9-13,6-19c0.8-1.5,0.9-3.1,0.4-4.7
		c-0.8-2.7-3.2-4.7-6.3-5c-2.6-0.2-4.9,0.7-6.4,3.6c-2.2,4-3.7,8.3-5,12.7C93,72.8,91.6,82.9,90.4,93.3z M112.2,90.6
		c0,1.6,0.2,4.2,0.8,6.9c0.9,4.3,2.6,8.3,5.6,11.4c5.6,5.9,12.5,7.4,20.2,5.4c4.9-1.3,8.5-4.5,11.4-8.5c6.2-8.8,8.7-18.6,7.7-29.3
		c-0.3-3.4-1.2-6.6-2.6-9.7c-4.8-10.3-15.4-13.2-23.8-10.7c-4.9,1.4-8.4,4.6-11.3,8.6C114.7,72,112.2,80.3,112.2,90.6z M207.8,80.5
		c-0.1-1.4-0.1-2.7-0.2-4.1c-0.3-4-1.5-7.7-3.4-11.2c-5.6-10.5-19.3-12.7-27.8-7.1c-3.6,2.4-6.3,5.6-8.5,9.3c-4.8,8-6.6,16.7-5.8,26
		c0.3,3.5,1.2,6.8,2.6,10c4.5,10,14.7,13.3,23.5,11c5.2-1.4,9-4.7,11.9-9C205.3,98,207.9,89.7,207.8,80.5z"/>
	<path class="st5" d="M137.4,68.7c1.7,0,3,0.8,4,2.1c1.6,2.1,2.5,4.6,2.8,7.2c0.9,6.5-0.4,12.5-4,18c-1.1,1.7-2.6,3.1-4.4,4.2
		c-0.8,0.5-1.7,0.8-2.6,1c-2.1,0.4-3.7-0.6-4.8-2.4c-1.5-2.2-2.3-4.8-2.6-7.4c-0.8-7.1,1.1-13.5,5.6-19.1c1.2-1.6,2.7-2.9,4.7-3.4
		C136.5,68.8,136.9,68.8,137.4,68.7z"/>
	<path class="st5" d="M194.4,80.9c-0.1,5.3-1.1,9.9-3.6,14.1c-1.3,2.2-3,4-5.2,5.2c-3.1,1.8-5.7,1.1-7.6-1.9
		c-1.4-2.3-2.2-4.9-2.4-7.6c-0.7-7,1.4-13.2,5.8-18.6c0.8-1,1.9-2,3.1-2.7c2.3-1.4,5.2-1,6.9,1.5c1.5,2.1,2.2,4.5,2.7,7
		C194.2,79.1,194.3,80.2,194.4,80.9z"/>
</g>
</svg>
